<svg xmlns="http://www.w3.org/2000/svg" viewBox="0 0 400 80">
  <defs>
    <linearGradient id="grad3" x1="0%" y1="0%" x2="100%" y2="0%">
      <stop offset="0%" style="stop-color:#ffd700;stop-opacity:1" />
      <stop offset="100%" style="stop-color:#ff8c00;stop-opacity:1" />
    </linearGradient>
  </defs>
  <!-- Icon: Trophy -->
  <g transform="translate(20, 10)">
    <path d="M10 10 L15 40 C15 50 25 55 30 55 C35 55 45 50 45 40 L50 10 H10 Z" fill="#ffd700"/>
    <path d="M10 15 H0 V25 C0 30 5 35 10 35 V15 Z" fill="#ff8c00"/>
    <path d="M50 15 H60 V25 C60 30 55 35 50 35 V15 Z" fill="#ff8c00"/>
    <rect x="20" y="55" width="20" height="10" fill="#ffd700"/>
    <rect x="15" y="65" width="30" height="5" fill="#ff8c00"/>
    <!-- Sparkle -->
    <path d="M45 5 L47 10 L52 12 L47 14 L45 19 L43 14 L38 12 L43 10 Z" fill="white"/>
  </g>
  
  <!-- Text -->
  <text x="90" y="55" font-family="'M PLUS Rounded 1c', sans-serif" font-weight="bold" font-size="40" fill="white" style="text-shadow: 2px 2px 4px rgba(0,0,0,0.5);">
    賞金・賞品
  </text>
  
  <!-- Underline -->
  <rect x="90" y="65" width="200" height="4" fill="url(#grad3)" rx="2"/>
</svg>